<?xml version="1.0" encoding="utf-8"?>
<!-- Generator: Adobe Illustrator 26.0.0, SVG Export Plug-In . SVG Version: 6.00 Build 0)  -->
<svg version="1.1" id="Layer_1" xmlns="http://www.w3.org/2000/svg" xmlns:xlink="http://www.w3.org/1999/xlink" x="0px" y="0px"
	 viewBox="0 0 336.7 366.1" style="enable-background:new 0 0 336.7 366.1;" xml:space="preserve">
<style type="text/css">
	.st0{fill:#001B3C;}
	.st1{fill:none;stroke:#231F20;stroke-miterlimit:10;}
	.st2{fill:#00285A;}
	.st3{fill:#003578;}
</style>
<g id="Layer_2_00000012435420027499802480000001960698150019247513_">
	<g id="Layer_2-2">
		<path class="st0" d="M333.5,74.4l-73,56.5c0,0-28.4-44.5-76.5-41c-23.9-0.3-46.7,10.4-61.8,28.9L211.5,2
			C257.3,7.8,301.5,30.8,333.5,74.4z"/>
		<path class="st1" d="M333.5,74.4l-73,56.5c0,0-28.4-44.5-76.5-41c-23.9-0.3-46.7,10.4-61.8,28.9L211.5,2
			C257.3,7.8,301.5,30.8,333.5,74.4z"/>
		<path class="st2" d="M168.2,276.3L17.6,262C7.2,238.9,0.8,211.7,0.5,180.4C0.5,61.2,109.8-10.9,211.5,2l-89.2,116.8
			c-1.1,1.4-2.2,2.8-3.3,4.3l-0.1,0.1c-12.4,17.4-19.3,41.2-17.2,70.7C102.6,230.4,129.9,267.9,168.2,276.3z"/>
		<path class="st1" d="M168.2,276.3L17.6,262C7.2,238.9,0.8,211.7,0.5,180.4C0.5,61.2,109.8-10.9,211.5,2l-89.2,116.8
			c-1.1,1.4-2.2,2.8-3.3,4.3l-0.1,0.1c-12.4,17.4-19.3,41.2-17.2,70.7C102.6,230.4,129.9,267.9,168.2,276.3z"/>
		<path class="st3" d="M336,286.4c0,0-47.4,84.1-168.6,79C115.7,364.1,48.7,330.8,17.6,262l150.6,14.2l0,0
			c18.1,4,38.6,1.4,59.9-10.7c10.2-5.8,34.8-31.1,34.8-31.1L336,286.4z"/>
		<path class="st1" d="M336,286.4c0,0-47.4,84.1-168.6,79C115.7,364.1,48.7,330.8,17.6,262l150.6,14.2l0,0
			c18.1,4,38.6,1.4,59.9-10.7c10.2-5.8,34.8-31.1,34.8-31.1L336,286.4z"/>
		<line class="st1" x1="17.6" y1="262" x2="17.6" y2="262"/>
		<polyline class="st1" points="118.8,123.3 119,123.1 122.2,118.8 		"/>
	</g>
</g>
</svg>
